<svg width="34" height="34" viewBox="0 0 34 34" fill="none" xmlns="http://www.w3.org/2000/svg">
<rect x="9.84216" y="10.7368" width="16.1053" height="14.3158" fill="#4AFF00"/>
<path fill-rule="evenodd" clip-rule="evenodd" d="M17 4.25C13.6185 4.25 10.3755 5.5933 7.98439 7.98439C5.5933 10.3755 4.25 13.6185 4.25 17C4.25 20.3815 5.5933 23.6245 7.98439 26.0156C10.3755 28.4067 13.6185 29.75 17 29.75H23.375C25.3555 29.75 26.3458 29.75 27.1263 29.427C27.6421 29.2134 28.1108 28.9003 28.5055 28.5055C28.9003 28.1108 29.2134 27.6421 29.427 27.1263C29.75 26.3458 29.75 25.3555 29.75 23.375V17C29.75 13.6185 28.4067 10.3755 26.0156 7.98439C23.6245 5.5933 20.3815 4.25 17 4.25ZM11.3333 15.5833C11.3333 15.2076 11.4826 14.8473 11.7483 14.5816C12.0139 14.3159 12.3743 14.1667 12.75 14.1667H21.25C21.6257 14.1667 21.9861 14.3159 22.2517 14.5816C22.5174 14.8473 22.6667 15.2076 22.6667 15.5833C22.6667 15.9591 22.5174 16.3194 22.2517 16.5851C21.9861 16.8507 21.6257 17 21.25 17H12.75C12.3743 17 12.0139 16.8507 11.7483 16.5851C11.4826 16.3194 11.3333 15.9591 11.3333 15.5833ZM15.5833 21.25C15.5833 20.8743 15.7326 20.5139 15.9983 20.2483C16.2639 19.9826 16.6243 19.8333 17 19.8333H21.25C21.6257 19.8333 21.9861 19.9826 22.2517 20.2483C22.5174 20.5139 22.6667 20.8743 22.6667 21.25C22.6667 21.6257 22.5174 21.9861 22.2517 22.2517C21.9861 22.5174 21.6257 22.6667 21.25 22.6667H17C16.6243 22.6667 16.2639 22.5174 15.9983 22.2517C15.7326 21.9861 15.5833 21.6257 15.5833 21.25Z" fill="black"/>
</svg>
