<svg width="18" height="18" viewBox="0 0 18 18" fill="none" xmlns="http://www.w3.org/2000/svg">
<path d="M13.5525 6.38248L7.1325 3.17248C2.82 1.01248 1.05 2.78248 3.21 7.09498L3.8625 8.39998C4.05 8.78248 4.05 9.22498 3.8625 9.60748L3.21 10.905C1.05 15.2175 2.8125 16.9875 7.1325 14.8275L13.5525 11.6175C16.4325 10.1775 16.4325 7.82248 13.5525 6.38248ZM11.13 9.56248H7.08C6.7725 9.56248 6.5175 9.30748 6.5175 8.99998C6.5175 8.69248 6.7725 8.43748 7.08 8.43748H11.13C11.4375 8.43748 11.6925 8.69248 11.6925 8.99998C11.6925 9.30748 11.4375 9.56248 11.13 9.56248Z" fill="#4AFF00"/>
</svg>
